<svg xmlns="http://www.w3.org/2000/svg" viewBox="0 0 512 512" width="512" height="512">
  <defs>
    <linearGradient id="flame" x1="0%" y1="100%" x2="0%" y2="0%">
      <stop offset="0%" style="stop-color:#FF6B35"/>
      <stop offset="50%" style="stop-color:#F7C948"/>
      <stop offset="100%" style="stop-color:#6EE7B7"/>
    </linearGradient>
  </defs>
  <rect width="512" height="512" rx="108" fill="#060A10"/>
  <path d="M256 80 C256 80 320 160 320 240 C320 280 340 300 360 280 C380 260 380 220 360 180 C400 240 420 300 400 360 C380 420 320 460 256 460 C192 460 132 420 112 360 C92 300 112 240 152 180 C132 220 132 260 152 280 C172 300 192 280 192 240 C192 160 256 80 256 80Z" fill="url(#flame)"/>
  <path d="M256 200 C256 200 290 250 290 300 C290 330 276 360 256 360 C236 360 222 330 222 300 C222 250 256 200 256 200Z" fill="#060A10" opacity="0.4"/>
</svg>
